<?xml version="1.0" encoding="utf-8"?>
<!-- Generator: Adobe Illustrator 19.0.0, SVG Export Plug-In . SVG Version: 6.00 Build 0)  -->
<svg version="1.1" id="圖層_1" xmlns="http://www.w3.org/2000/svg" xmlns:xlink="http://www.w3.org/1999/xlink" x="0px" y="0px"
	 viewBox="0 0 841.9 595.3" style="enable-background:new 0 0 841.9 595.3;" xml:space="preserve">
<style type="text/css">
	.st0{fill:#FFFFFF;}
</style>
<g>
	<path class="st0" d="M719.7,369.9c0,75.1,0,150.2,0,225.3c-198.4,0-396.9,0-595.3,0c0-198.4,0-396.9,0-595.3
		c198.4,0,396.9,0,595.3,0c0,109.9,0,219.7,0,329.6c-0.9,0.1-1.8,0.3-2.8,0.3c-56.6,0-113.2,0-169.8,0c-1.4,0-2.8-0.3-4.9-0.5
		c0-37.8,0-75.2,0-112.6c-10.2-1.8-10.4-1.6-10.4,7.9c0,34.2,0,68.4,0,102.6c0,2.1,0,4.3,0,6.4c-16.6-19.5-38.3-29.4-61-37.5
		c-17.8-6.4-35.7-12.7-53.4-19.3c-16.6-6.2-31.6-15.3-42.5-29.5c-12.3-16.2-16-34.9-12.6-54.9c2.2-13.3,7.9-24.9,17.2-35
		c15-16.2,33.9-24.5,55.2-27.7c25.4-3.8,49.9-0.5,72,13.4c8.5,5.4,16,12.5,24.2,18.9c2.1-1.8,4.6-3.9,7.2-6.1c-1.2-1.7-2-3-2.9-4
		c-10.4-11.6-23.2-19.8-37.5-25.6c-23.8-9.7-48.4-10.7-73.3-5.6c-19.3,4-36.8,12.2-50.8,26.2c-17.1,17.2-23.8,38.6-22.6,62.7
		c0.2,3.2,0.4,6.5,0.6,9.2c-34.9,0-68.9,0-103.1,0c0,6.9,0,14.5,0,22.3c26,0,51.6,0,77.7,0c-0.9,1.6-1.3,2.6-2,3.5
		c-9.9,12.3-19.8,24.6-29.7,36.9c-17.1,21.3-34.3,42.5-51.4,63.8c-0.8,1-1.6,2.2-1.7,3.3c-0.2,6.1-0.1,12.2-0.1,19.5
		c40.1,0,79.5,0,119.1,0c0-6.8,0-14.5,0-22.1c-29.4,0-58.3,0-87.5,0c28.1-35.6,55.8-70.7,84-106.3c3.2,5.1,5.4,9.2,8.1,12.9
		c11.6,15.4,27.3,25.2,45,31.8c20.8,7.8,42,14.9,62.9,22.4c14.3,5.1,27.5,12.4,38.8,22.7c18,16.4,23.6,37,20.1,60.8
		c-3.8,25.7-18.1,43.5-40.7,55.1c-19,9.8-39.2,13.3-60.5,10.9c-27.6-3.1-52.2-12.8-72.2-32.6c-6.1-6-6-6-11.9,0.4
		c-0.5,0.5-0.8,1.2-1.2,1.8c9.8,12.1,22.1,20.8,35.8,27.4c32.1,15.4,65.3,18.2,99.8,8.5c35.9-10.1,62.9-42.7,62.6-80.8
		c0-3.7,0-7.3,0-11.2c29.1,0,57.4,0,85.8,0c-20.2,63.1-99,148.3-219.6,136.7c-90.6-8.7-180.8-82.3-189.3-196.7
		c-3.6-49.5,9.2-95.4,38.4-135.7c42.3-58.3,100.2-87.9,172.2-90.3c0-2.4,0-4.6,0-7.2c-2.2,0-4,0-5.8,0c-24.8,0-48.5,5.5-71.7,14
		c-28.8,10.6-53.8,27.1-75.7,48.2c-12.9,12.4-23.8,26.5-33.3,41.8c-18.7,30.1-29.3,63-31.9,98.1c-2.4,32.7,1.9,64.8,13.8,95.8
		c10.9,28.3,26.9,53.1,47.7,74.8c12.5,13,26.7,24.1,42.2,33.7c30.1,18.7,63,29.3,98.1,32c33.3,2.5,66-2,97.4-14.3
		c34.5-13.6,63.8-34.5,87.7-62.6c16.1-19,29-40.1,37.3-63.8c1.4-3.9,3.5-4.9,7.4-4.9c23.5,0.2,47.1,0.1,70.6,0.1
		C716.4,369.5,718,369.8,719.7,369.9z M251.9,546.2c10.1-9,19.9-17.1,28.9-25.9c3.9-3.8,6.3-3.8,10.7-1
		c36.9,23.7,77.6,36.4,121.1,39.6c17.1,1.2,34.6-0.6,51.8-1.8c22.2-1.5,43.4-7.8,64.1-15.8c29.5-11.4,55.9-28,79.4-49
		c19-17,35.2-36.5,48.5-58.2c4.9-8,9.1-16.5,14-25.7c-5.8,0-10.3,0.5-14.7-0.1c-6.4-1-9.2,2.3-11.9,7.3c-9.2,17.4-21,33-34.4,47.2
		c-22.8,24.1-49.2,42.9-79.6,56.5c-30.7,13.7-62.9,20.1-96.2,20.9c-12,0.3-24-1.5-36-2.9c-24.6-2.7-48-10.1-70.2-20.7
		c-37.7-18.1-69-44.1-93.6-78.1c-11.2-15.4-20.7-31.8-27.8-49.6c-15.3-38.2-21.6-77.7-16.9-118.9c3.1-27.4,10-53.7,22-78.4
		c14.4-29.8,33.8-55.9,58.8-77.9c24.2-21.3,51.2-37.7,81.7-48.1c29.6-10.1,59.9-15.6,91.3-13c13.5,1.1,27,2.3,40.2,5
		c33,6.8,63.2,20.4,90.6,40.3c16.9,12.3,32.7,25.9,45.4,42.6c9.7,12.9,18.4,26.6,27.6,39.9c0.9,1.2,2.2,3,3.4,3
		c6.4,0.3,12.8,0.1,19.5,0.1c-19.4-46.2-67.2-103-134.1-129.8c-98.3-39.4-189.5-24.4-273.1,39c-10.7-10.2-21.3-20.4-32.2-30.7
		c-5.7,5.3-11.4,10.7-17.6,16.5c10.6,11.1,20.8,21.8,30.7,32.2c-8.9,10.5-17.4,20.6-26.1,31c-11.3-7.8-22.7-15.8-34.3-23.8
		c-5.1,7.2-9.7,13.6-14.4,20.2c2.1,1.5,3.7,2.7,5.4,3.9c8.7,6.1,17.4,12,26,18.2c2,1.5,3.9,2.8,2.4,6.3
		c-7.6,16.8-15.6,33.4-21.9,50.6c-7.2,19.7-10.7,40.6-11.6,61.6c-0.9,19.5-0.5,39,2.6,58.4c5,30.8,14.7,59.8,29.8,87.1
		c5.4,9.7,11.6,18.9,17.6,28.5c-8.9,6.3-17.8,12.6-27,19.1c4.9,6.8,9.6,13.2,14.6,20.2c8.7-6.1,16.9-12,25.3-17.7
		c1.2-0.8,4.1-1.1,5-0.3c9.5,8.8,18.7,18,28.2,27.2c-8.3,8.6-16.6,17.2-24.9,25.8c-1.6,1.7-4.9,3.3-1.9,6.3
		C243.1,538.2,248.5,543,251.9,546.2z"/>
	<path d="M719.7,369.9c-1.7-0.1-3.3-0.4-5-0.4c-23.5,0-47.1,0.1-70.6-0.1c-3.9,0-6,0.9-7.4,4.9c-8.3,23.6-21.2,44.8-37.3,63.8
		c-23.9,28.1-53.2,49.1-87.7,62.6c-31.4,12.4-64,16.9-97.4,14.3c-35.1-2.6-68-13.3-98.1-32c-15.4-9.6-29.6-20.7-42.2-33.7
		c-20.8-21.7-36.9-46.5-47.7-74.8c-11.9-31-16.2-63-13.8-95.8c2.6-35.1,13.2-68,31.9-98.1c9.5-15.3,20.4-29.4,33.3-41.8
		c21.9-21.2,46.9-37.7,75.7-48.2c23.2-8.5,46.9-13.9,71.7-14c1.8,0,3.7,0,5.8,0c0,2.7,0,4.8,0,7.2c-72,2.4-129.9,32-172.2,90.3
		c-29.3,40.3-42.1,86.2-38.4,135.7c8.4,114.4,98.6,188,189.3,196.7C530.2,518.2,609,433,629.2,369.9c-28.4,0-56.7,0-85.8,0
		c0,3.8,0,7.5,0,11.2c0.3,38.1-26.7,70.7-62.6,80.8c-34.4,9.7-67.7,6.9-99.8-8.5c-13.6-6.6-26-15.3-35.8-27.4
		c0.4-0.7,0.7-1.3,1.2-1.8c5.9-6.4,5.9-6.4,11.9-0.4c20.1,19.8,44.6,29.5,72.2,32.6c21.3,2.4,41.5-1.1,60.5-10.9
		c22.6-11.6,36.9-29.3,40.7-55.1c3.5-23.7-2.1-44.3-20.1-60.8c-11.3-10.3-24.5-17.5-38.8-22.7c-21-7.5-42.1-14.6-62.9-22.4
		c-17.7-6.6-33.4-16.4-45-31.8c-2.7-3.7-4.9-7.8-8.1-12.9c-28.2,35.7-55.9,70.7-84,106.3c29.2,0,58.1,0,87.5,0c0,7.6,0,15.3,0,22.1
		c-39.6,0-79.1,0-119.1,0c0-7.3-0.1-13.4,0.1-19.5c0-1.1,0.9-2.4,1.7-3.3c17.1-21.3,34.2-42.6,51.4-63.8
		c9.9-12.3,19.8-24.6,29.7-36.9c0.7-0.8,1.1-1.9,2-3.5c-26.2,0-51.7,0-77.7,0c0-7.9,0-15.4,0-22.3c34.2,0,68.2,0,103.1,0
		c-0.2-2.7-0.5-5.9-0.6-9.2c-1.2-24,5.5-45.5,22.6-62.7c14-14,31.4-22.3,50.8-26.2c24.9-5.1,49.5-4.1,73.3,5.6
		c14.3,5.8,27.1,14,37.5,25.6c1,1.1,1.7,2.4,2.9,4c-2.6,2.2-5.1,4.3-7.2,6.1c-8.2-6.5-15.7-13.5-24.2-18.9
		c-22.1-14-46.5-17.2-72-13.4c-21.3,3.2-40.2,11.5-55.2,27.7c-9.3,10-15,21.7-17.2,35c-3.4,20,0.3,38.7,12.6,54.9
		c10.9,14.3,25.9,23.3,42.5,29.5c17.7,6.6,35.6,13,53.4,19.3c22.8,8.1,44.5,18,61,37.5c0-2.1,0-4.3,0-6.4c0-34.2,0-68.4,0-102.6
		c0-9.5,0.2-9.7,10.4-7.9c0,37.3,0,74.8,0,112.6c2,0.2,3.4,0.5,4.9,0.5c56.6,0,113.2,0,169.8,0c0.9,0,1.8-0.2,2.8-0.3
		c0,1.5,0,3,0,4.5c-19.8-0.1-39.5-0.1-59.3-0.2c-12.6,0-12.6,0-14.8,12.2c-0.1,0.3,0.2,0.7,0.5,1.4c24.4,0,49,0,73.6,0
		C719.7,355,719.7,362.5,719.7,369.9z M347.3,240.6c-3.9,0-6.4,0.3-8.9-0.1c-5.4-0.8-9.1,1.2-12.1,5.7c-2.6,4-5.7,7.8-8.8,11.5
		c-22.5,28.1-45,56.2-67.4,84.4c-1,1.3-1.3,3.1-2.2,5.4c7.2-0.3,13.3,2,18.5-4.7c18.5-24,37.6-47.4,56.4-71.1
		C330.6,261.8,338.5,251.7,347.3,240.6z M542.7,347.4c31.7,0,62.8,0,94.3,0c0.8-4.4,1.6-8.6,2.5-13.1c-32.8,0-64.6,0-96.8,0
		C542.7,338.7,542.7,342.7,542.7,347.4z"/>
	<path class="st0" d="M719.7,347.5c-24.6,0-49.2,0-73.6,0c-0.3-0.7-0.6-1.1-0.5-1.4c2.2-12.2,2.2-12.2,14.8-12.2
		c19.8,0,39.5,0.1,59.3,0.2C719.7,338.6,719.7,343,719.7,347.5z"/>
	<path d="M251.9,546.2c-3.5-3.2-8.8-8-14-13.1c-3-3,0.3-4.6,1.9-6.3c8.2-8.6,16.5-17.2,24.9-25.8c-9.5-9.2-18.7-18.3-28.2-27.2
		c-0.9-0.8-3.7-0.5-5,0.3c-8.4,5.6-16.6,11.5-25.3,17.7c-5-7-9.6-13.4-14.6-20.2c9.2-6.5,18.1-12.8,27-19.1
		c-6-9.6-12.2-18.8-17.6-28.5c-15.1-27.2-24.9-56.2-29.8-87.1c-3.2-19.5-3.5-39-2.6-58.4c0.9-21,4.4-41.8,11.6-61.6
		c6.3-17.2,14.3-33.8,21.9-50.6c1.6-3.5-0.3-4.8-2.4-6.3c-8.6-6.1-17.3-12.1-26-18.2c-1.7-1.2-3.3-2.4-5.4-3.9
		c4.7-6.5,9.3-13,14.4-20.2c11.6,8.1,23,16,34.3,23.8c8.8-10.4,17.2-20.5,26.1-31c-9.9-10.4-20.1-21.1-30.7-32.2
		c6.1-5.8,11.9-11.2,17.6-16.5c10.9,10.4,21.5,20.5,32.2,30.7c83.5-63.4,174.8-78.4,273.1-39c66.9,26.8,114.7,83.6,134.1,129.8
		c-6.7,0-13.1,0.2-19.5-0.1c-1.2-0.1-2.5-1.8-3.4-3c-9.2-13.3-17.9-27-27.6-39.9c-12.6-16.8-28.4-30.4-45.4-42.6
		c-27.3-19.8-57.5-33.5-90.6-40.3c-13.2-2.7-26.8-3.8-40.2-5c-31.4-2.6-61.7,2.8-91.3,13c-30.5,10.4-57.5,26.8-81.7,48.1
		c-25,22-44.4,48.1-58.8,77.9c-11.9,24.8-18.9,51-22,78.4c-4.6,41.2,1.6,80.6,16.9,118.9c7.1,17.7,16.6,34.1,27.8,49.6
		c24.6,33.9,55.8,60,93.6,78.1c22.2,10.6,45.6,18,70.2,20.7c12,1.3,24,3.1,36,2.9c33.3-0.8,65.5-7.2,96.2-20.9
		c30.4-13.5,56.9-32.4,79.6-56.5c13.4-14.2,25.2-29.8,34.4-47.2c2.7-5,5.6-8.3,11.9-7.3c4.3,0.7,8.9,0.1,14.7,0.1
		c-5,9.1-9.1,17.6-14,25.7c-13.4,21.7-29.5,41.2-48.5,58.2c-23.5,21-49.9,37.6-79.4,49c-20.7,8-41.9,14.3-64.1,15.8
		c-17.2,1.2-34.7,3-51.8,1.8c-43.5-3.1-84.2-15.9-121.1-39.6c-4.4-2.8-6.9-2.8-10.7,1C271.8,529.1,262,537.2,251.9,546.2z"/>
	<path class="st0" d="M347.3,240.6c-8.8,11.1-16.6,21.2-24.5,31.1c-18.8,23.7-37.9,47.2-56.4,71.1c-5.2,6.7-11.3,4.4-18.5,4.7
		c0.9-2.3,1.2-4.1,2.2-5.4c22.4-28.2,45-56.3,67.4-84.4c3-3.8,6.1-7.5,8.8-11.5c3-4.5,6.7-6.5,12.1-5.7
		C340.8,240.9,343.4,240.6,347.3,240.6z"/>
	<path class="st0" d="M542.7,347.4c0-4.7,0-8.7,0-13.1c32.2,0,64,0,96.8,0c-0.9,4.6-1.7,8.8-2.5,13.1
		C605.5,347.4,574.4,347.4,542.7,347.4z"/>
</g>
</svg>
